<?xml version="1.0" standalone="no"?>
<!DOCTYPE svg PUBLIC "-//W3C//DTD SVG 20010904//EN"
 "http://www.w3.org/TR/2001/REC-SVG-20010904/DTD/svg10.dtd">
<svg version="1.0" xmlns="http://www.w3.org/2000/svg"
 width="300.000000pt" height="111.000000pt" viewBox="0 0 300.000000 111.000000"
 preserveAspectRatio="xMidYMid meet">
<metadata>
Created by potrace 1.10, written by Peter Selinger 2001-2011
</metadata>
<g transform="translate(0.000000,111.000000) scale(0.100000,-0.100000)"
fill="#000000" stroke="none">
<path d="M1477 1103 c-11 -10 -8 -131 3 -138 6 -4 10 22 10 69 0 76 -1 82 -13
69z"/>
<path d="M1398 938 c-27 -5 -48 -14 -48 -19 0 -5 59 -9 130 -9 72 0 130 4 130
9 0 22 -143 35 -212 19z"/>
<path d="M1270 860 c10 -19 21 -20 208 -20 192 0 222 4 222 32 0 4 -99 8 -220
8 -218 0 -221 0 -210 -20z"/>
<path d="M1177 808 c5 -7 24 -32 42 -55 l33 -43 -626 0 c-619 0 -626 0 -626
-20 0 -20 7 -20 635 -20 l635 0 -5 55 c-2 30 -1 55 3 55 4 0 102 1 217 1 l210
1 3 -56 3 -56 649 0 c643 0 650 0 650 20 0 20 -7 20 -640 20 -352 0 -640 3
-640 6 0 4 16 28 36 55 l36 49 -312 0 c-248 0 -311 -3 -303 -12z"/>
<path d="M1294 726 c-11 -29 1 -61 24 -64 20 -3 22 1 22 37 0 35 -3 41 -20 41
-11 0 -23 -6 -26 -14z"/>
<path d="M1380 710 c0 -16 -1 -33 -2 -37 -2 -5 7 -9 20 -11 20 -3 22 1 22 37
0 34 -3 41 -20 41 -16 0 -20 -7 -20 -30z"/>
<path d="M1460 706 c0 -19 5 -36 11 -38 6 -2 8 -14 4 -31 -6 -23 -12 -27 -44
-27 l-36 0 -43 -122 c-73 -208 -60 -205 -118 -32 l-51 149 -46 3 -47 3 0 -190
0 -191 33 0 33 0 -4 138 c-3 86 0 133 5 127 6 -5 30 -67 53 -137 l44 -128 33
0 c18 0 33 5 33 11 0 17 81 242 91 253 5 5 5 -52 2 -127 l-6 -137 36 0 37 0 0
194 c0 107 4 197 9 200 5 3 16 -11 24 -32 8 -20 31 -71 50 -112 109 -236 108
-232 63 -250 -14 -6 20 -9 97 -9 72 -1 117 3 117 9 0 6 -9 10 -20 10 -25 0
-43 41 -33 78 7 29 77 157 102 186 13 16 14 18 1 14 -8 -2 -25 -20 -38 -39
-24 -35 -42 -48 -42 -30 0 27 -36 91 -57 100 -24 11 -30 27 -12 33 7 2 7 12
-2 31 -10 22 -19 27 -49 27 -34 0 -60 -14 -60 -32 0 -10 32 -7 40 4 3 4 11 -2
18 -13 11 -17 9 -21 -12 -30 -14 -7 -22 -17 -19 -25 5 -13 -50 -74 -66 -74
-12 0 -102 195 -91 198 5 2 10 19 10 38 0 30 -3 34 -25 34 -22 0 -25 -4 -25
-34z m260 -170 c-1 -5 4 -12 11 -17 11 -6 10 -9 -4 -14 -13 -6 -14 -11 -6 -26
6 -13 6 -19 0 -19 -18 0 -35 41 -21 50 9 5 9 9 1 14 -17 11 -13 28 5 24 8 -2
14 -7 14 -12z m-45 -43 c-12 -31 -19 -86 -18 -137 2 -56 -7 -51 -32 19 -10 28
-23 56 -29 63 -10 14 7 32 31 32 7 0 17 9 23 20 13 25 35 27 25 3z m116 -37
c14 -28 19 -51 14 -63 -6 -16 -8 -15 -17 7 -5 14 -16 38 -24 53 -12 25 -12 47
1 47 2 0 14 -20 26 -44z m-33 -122 c1 -37 -3 -55 -18 -74 l-21 -25 -16 23
c-16 23 -24 72 -16 103 2 11 10 15 23 12 12 -3 20 0 20 7 0 6 6 10 13 8 7 -3
13 -25 15 -54z"/>
<path d="M1542 703 c2 -30 7 -38 23 -38 16 0 21 8 23 38 3 34 1 37 -23 37 -24
0 -26 -3 -23 -37z"/>
<path d="M1620 705 c0 -31 3 -35 25 -35 22 0 25 4 25 35 0 31 -3 35 -25 35
-22 0 -25 -4 -25 -35z"/>
<path d="M310 420 l0 -190 35 0 35 0 0 68 c0 61 3 71 25 91 14 12 29 20 33 17
4 -2 34 -43 67 -90 60 -85 60 -85 104 -86 33 0 41 3 34 13 -6 6 -45 57 -88
111 l-78 99 34 30 c66 58 129 118 129 122 0 3 -17 5 -39 5 -35 0 -47 -9 -130
-86 l-91 -86 0 86 0 86 -35 0 -35 0 0 -190z"/>
<path d="M701 421 l0 -191 35 0 34 0 0 75 0 75 70 0 c116 0 170 36 170 112 0
93 -30 111 -187 116 l-122 4 0 -191z m199 133 c36 -8 56 -40 46 -77 -7 -31
-49 -47 -122 -47 l-54 0 0 65 0 65 49 0 c27 0 63 -3 81 -6z"/>
<path d="M1920 421 l0 -191 110 0 c119 0 155 10 184 52 9 12 16 35 16 50 0 28
-19 78 -29 78 -3 0 -12 4 -20 9 -12 7 -10 14 8 36 29 38 27 78 -8 117 l-29 33
-116 3 -116 4 0 -191z m217 118 c21 -18 12 -62 -17 -76 -14 -7 -49 -13 -77
-13 l-53 0 0 56 0 57 66 -6 c37 -4 73 -12 81 -18z m8 -164 c14 -13 25 -29 25
-35 0 -6 -11 -22 -25 -35 -21 -22 -33 -25 -90 -25 l-65 0 0 60 0 60 65 0 c57
0 69 -3 90 -25z"/>
<path d="M2310 421 l0 -191 33 0 32 0 -3 137 c-2 86 0 134 6 128 5 -5 29 -67
53 -137 43 -126 45 -128 74 -128 29 0 31 2 74 128 24 70 48 132 53 137 6 6 6
-44 2 -127 l-7 -138 37 0 36 0 0 190 0 190 -42 0 -43 0 -44 -128 c-24 -70 -48
-138 -54 -152 -8 -22 -15 -6 -62 125 l-52 150 -47 3 -46 3 0 -190z"/>
<path d="M0 150 c0 -20 8 -20 531 -22 l532 -3 13 -50 c7 -27 13 -51 14 -52 0
-1 -245 0 -545 4 -410 5 -545 3 -545 -5 0 -9 369 -12 1500 -12 874 0 1500 4
1500 9 0 5 -230 8 -542 7 -478 -1 -542 1 -539 14 3 8 5 31 5 50 l1 35 538 3
c529 2 537 2 537 22 0 20 -9 20 -1500 20 -1491 0 -1500 0 -1500 -20z m1156
-18 c6 -4 11 -23 12 -43 1 -27 -3 -38 -16 -41 -32 -9 -42 3 -42 48 0 35 3 44
18 44 9 0 22 -4 28 -8z m118 -39 c16 -47 13 -73 -5 -40 -13 22 -28 22 -45 0
-12 -16 -13 -16 -14 -2 0 23 29 89 39 89 5 0 16 -21 25 -47z m91 17 c18 -36
28 -39 23 -7 -1 12 1 23 6 25 10 2 13 -75 3 -84 -3 -4 -15 9 -26 27 l-21 34 0
-27 c0 -15 -4 -30 -10 -33 -6 -4 -10 13 -10 44 0 58 12 65 35 21z m160 6 c12
-19 14 -30 6 -44 -11 -21 -55 -37 -71 -27 -11 7 -14 78 -3 88 15 16 53 6 68
-17z m75 -22 c0 -48 24 -40 28 9 4 50 22 47 22 -3 0 -71 -65 -79 -72 -9 -2 22
-2 42 1 44 10 11 21 -10 21 -41z m130 19 l14 -28 4 28 c6 44 22 31 22 -18 0
-52 -10 -56 -40 -17 l-21 27 4 -28 c2 -15 0 -30 -4 -33 -5 -3 -9 18 -9 45 0
57 10 65 30 24z m160 17 c0 -5 -8 -10 -19 -10 -28 0 -47 -26 -31 -45 14 -17
40 -20 40 -5 0 6 -4 10 -10 10 -5 0 -10 4 -10 9 0 5 9 7 20 4 25 -7 27 -43 3
-44 -33 -2 -48 2 -60 19 -17 22 -16 29 7 52 21 21 60 27 60 10z"/>
<path d="M1470 90 c0 -32 19 -40 39 -16 15 18 3 46 -20 46 -14 0 -19 -7 -19
-30z"/>
</g>
</svg>
